<svg width="120" height="120" viewBox="0 0 120 120" fill="none" xmlns="http://www.w3.org/2000/svg">
<path d="M7 30V90L59.1053 120L111.211 90V30L59.1053 0L7 30Z" fill="#454552"/>
<path d="M7 30V90L59.1053 120L111.211 90V30L59.1053 0L7 30Z" fill="#404040"/>
<path d="M11.3061 32.4792L59.1053 60V4.9585L11.3061 32.4792Z" fill="#CE9178"/>
<path d="M59.1053 60L11.3061 32.4792V87.5208L59.1053 60Z" fill="#DCDCAA"/>
<path d="M59.1053 60L11.3061 87.5208L59.1053 115.042V60Z" fill="#4EC9B0"/>
<path d="M59.1053 60V115.042L106.904 87.5208L59.1053 60Z" fill="#9CDCFE"/>
<path d="M106.904 32.4792L59.1053 60L106.904 87.5208V32.4792Z" fill="#569CD6"/>
<path d="M59.1053 4.9585V60L106.904 32.4792L59.1053 4.9585Z" fill="#C586C0"/>
</svg>
